# xmcd CD database file
#
# Track frame offsets:
#	150
#	12857
#	34037
#	51862
#	65560
#	76910
#	90872
#	106222
#	127135
#	143072
#	154935
#	167985
#	186072
#	201022
#	224710
#	238947
#	254785
#	269572
#	284847
#	298985
#
# Disc length: 4156 seconds
#
# Revision: 0
# Processed by: cddbd v1.5.1PL0 Copyright (c) Steve Scherf et al.
# Submitted via: CDex 1.51
#
DISCID=3f103a14
DTITLE=SARAH VAUGHAN - A LOVER'S CONCERTO
DYEAR=1900
DGENRE=Jazz
TTITLE0=A LOVER'S CONCERTO
TTITLE1=FLY ME TO THE MOON
TTITLE2=THE SHADOW OF YOUR SMILE
TTITLE3=MISTY
TTITLE4=THE BOY FROM IPANEMA
TTITLE5=SEPTEMBER SONG
TTITLE6=MICHELLE
TTITLE7=DANNY BOY
TTITLE8=BEWITCHED
TTITLE9=HOW HIGH THE MOON
TTITLE10=SUMMERTIME
TTITLE11=SMOKE GETS IN YOUR EYES
TTITLE12=MOONLIGHT IN VERMONT
TTITLE13=CHEEK TO CHEEK
TTITLE14=DAY BY DAY
TTITLE15=OVER THE RAINBOW
TTITLE16=MY ROMANCE
TTITLE17=QUIET NIGHTS(CORCOVADO)
TTITLE18=CLOSE TO YOU
TTITLE19=WHAT THE WORLD NEEDS NOW IS LOVE
EXTD=
EXTT0=
EXTT1=
EXTT2=
EXTT3=
EXTT4=
EXTT5=
EXTT6=
EXTT7=
EXTT8=
EXTT9=
EXTT10=
EXTT11=
EXTT12=
EXTT13=
EXTT14=
EXTT15=
EXTT16=
EXTT17=
EXTT18=
EXTT19=
PLAYORDER=
